<svg width="55" height="55" viewBox="0 0 55 55" fill="none" xmlns="http://www.w3.org/2000/svg">
<path d="M6.875 44.6875V13.75C6.875 13.2942 7.05608 12.857 7.37841 12.5347C7.70074 12.2123 8.13791 12.0312 8.59375 12.0312H20.0449C20.4166 12.0328 20.7779 12.1532 21.0762 12.375L27.0488 16.8438C27.3471 17.0655 27.7084 17.186 28.0801 17.1875H42.9688C43.4246 17.1875 43.8618 17.3686 44.1841 17.6909C44.5064 18.0132 44.6875 18.4504 44.6875 18.9062V24.0625" stroke="white" stroke-width="2" stroke-linecap="round" stroke-linejoin="round"/>
<path d="M6.875 44.6875L13.3633 25.2441C13.4764 24.9004 13.6951 24.601 13.9883 24.3889C14.2815 24.1767 14.6342 24.0625 14.9961 24.0625H49.1777C49.4495 24.0625 49.7174 24.1269 49.9595 24.2505C50.2015 24.3741 50.4108 24.5533 50.5702 24.7735C50.7295 24.9936 50.8344 25.2485 50.8762 25.517C50.918 25.7856 50.8955 26.0602 50.8105 26.3184L44.6875 44.6875H6.875Z" stroke="white" stroke-width="2" stroke-linecap="round" stroke-linejoin="round"/>
</svg>
