<svg xmlns:xlink="http://www.w3.org/1999/xlink" xmlns="http://www.w3.org/2000/svg" width="156.5"  height="84.875" >
	<g viewBox="0 0 156.5 84.875" id="logo">
		<path fill="#252525" d="M153.1 84.7v-6h-1.3l-2 6h-3.2l2.4-6.5c-.4-.2-.9-.6-1.1-.9-.4-.6-.6-1.5-.6-2.3v-1.2c0-1.4.6-2.3 1.2-2.7.9-.9 2.1-.9 3.2-.9h4.5v14.6h-3.1zm0-12.2h-1.4c-.4 0-.8.1-1.1.4-.4.4-.4.8-.4 1.3v.6c0 .3.1.8.4 1.1.4.4.8.4 1.2.4h1.4v-3.8zm-10-17.7h-1.3l-2 6h-3.2l2.4-6.5c-.4-.2-.9-.6-1.1-.9-.4-.6-.6-1.5-.6-2.3v-1.2c0-1.4.6-2.3 1.2-2.7.9-.9 2.1-.9 3.2-.9h4.5v14.6h-2.9v-6.1zm0-6.2h-1.4c-.4 0-.8.1-1.2.4-.4.4-.4.8-.4 1.3v.6c0 .3.1.8.4 1.1.4.4.8.4 1.2.4h1.4v-3.8zm-3 21.5h2.9v14.6h-2.9v-8.2l-4 6.4v1.8h-2.9V70.1h2.9v8.2l4-6.4v-1.8zm-9.9-10.7c-.3.3-.6.8-1.1 1.1-.6.4-1.1.6-1.7.6-.6 0-1.5-.1-2.2-.8-.9-.9-1.1-2.2-1.1-3.4 0-1.1.1-2.7.9-3.7 1-1.2 2.6-1.3 3.5-1.3.2 0 .8 0 1.7.1v-1.5c0-.4 0-.9-.4-1.2-.3-.3-.7-.5-1.2-.5-.4 0-.9.1-1.2.5-.2.2-.4.6-.4.9h-2.8c0-1.3.5-2.5 1.2-3.2.7-.7 1.9-1.2 3.3-1.2 1.3 0 2.4.5 3.2 1.2 1.1 1.1 1.2 2.4 1.2 3.4v10.2h-2.9v-1.2zm0-4.9c-.4-.1-.7-.1-1-.1-.5 0-1.2.1-1.6.6-.4.4-.4 1.1-.4 1.5 0 .4.1.8.3 1.2.3.5.7.7 1.2.7.9 0 1.7-.6 1.7-1.9v-2zm-4.1 15.6h2.9v14.6h-2.9v-6.1h-3v6.1h-2.9V70.1h2.9V76h3v-5.9zm-9.5-9.3h-4.5V46.2h4.9c1.2 0 2.3.4 2.9 1.1.6.7 1 1.7 1 2.5v.7c0 .6-.1 1.4-.7 2.2-.1.2-.5.5-1.2.7.4.1.9.4 1.4 1 .5.7.6 1.4.6 2.1v.7c0 1.4-.6 2.3-1.2 2.7-1 .8-2.1.9-3.2.9zm1.3-10.5c0-.6-.3-1-.4-1-.3-.4-.8-.4-1.2-.4H115v3.4h1.3c.4 0 .8 0 1.2-.5.3-.4.4-.8.4-1.2v-.3zm.1 5.8c0-.3-.1-.8-.4-1.1-.4-.4-.8-.4-1.2-.4H115v3.6h1.4c.4 0 .9-.1 1.3-.5.3-.3.3-.7.3-1v-.6zm-3.3 15c1.1 1.1 1.2 2.4 1.2 3.4v10.2H113v-1.4h-.1c-.2.3-.6.8-1 1.1-.6.4-1.1.6-1.7.6-.6 0-1.5-.1-2.2-.8-.9-.9-1.1-2.2-1.1-3.4 0-1.1.1-2.6.9-3.7 1-1.1 2.6-1.3 3.5-1.3.2 0 .8 0 1.7.1v-1.5c0-.4 0-.9-.4-1.2-.3-.3-.7-.5-1.2-.5-.4 0-.9.1-1.2.5-.2.2-.4.6-.4.9H107c0-1.3.5-2.5 1.2-3.2.7-.7 1.9-1.2 3.3-1.2 1.4.2 2.5.7 3.2 1.4zm-1.7 7.3c-.4-.1-.7-.1-1-.1-.5 0-1.2.1-1.7.6-.4.4-.4 1.1-.4 1.5 0 .4.1.8.3 1.2.3.5.7.7 1.2.7.9 0 1.7-.6 1.7-1.9v-2zm-9.3-17.3c-1.1 0-2.2-.4-3-1-1.4-1.2-1.4-2.8-1.4-3.9V51c0-1.1.1-2.8 1.4-3.9.8-.7 1.9-1 3-1s2.2.4 3 1c1.4 1.1 1.4 2.8 1.4 3.9v5.2c0 1.1-.1 2.8-1.4 3.9-.8.6-1.9 1-3 1zm1.5-10.4c0-.7-.2-1.2-.4-1.5-.2-.2-.6-.4-1.1-.4-.4 0-.8.2-1.1.4-.3.3-.4.8-.4 1.5v5.5c0 .7.2 1.2.4 1.5.2.2.6.4 1.1.4.4 0 .8-.2 1.1-.4.3-.3.4-.8.4-1.5v-5.5zM91.4 61.1c-1 0-2.3-.4-3.1-1.1-.7-.6-1.2-1.7-1.2-2.9v-.6h2.8v.3c0 .4.1.7.3.9.4.4.8.5 1.2.5.7 0 1.1-.3 1.3-.5.3-.3.4-.8.4-1.2v-.3c0-.6-.3-.9-.4-1.1-.3-.3-.8-.4-1.1-.4h-1v-2.5h.9c.5 0 .9-.2 1.2-.5.2-.2.4-.6.4-1.1v-.1c0-.4-.1-.8-.4-1.1-.3-.4-.8-.5-1.1-.5-.6 0-.9.2-1.2.5-.3.4-.4.7-.4 1.1v.2h-2.8v-.3c0-1.5.6-2.6 1.1-3.1.8-.8 1.9-1.3 3.4-1.3 1.4 0 2.4.5 3 1.1.6.5 1.2 1.5 1.2 3v.4c0 .8-.2 1.4-.5 1.9-.2.3-.6.7-1.1 1 .6.2 1 .6 1.2 1 .5.7.6 1.5.6 2.1v.4c0 1.1-.5 2.2-1.1 2.9-1 .8-2.2 1.3-3.6 1.3zm-11.8 4.8c-.9.9-2 .9-2.9.9h-.8l-.1-2.7h.6c.4 0 1-.1 1.4-.6.1-.1.3-.5.5-1.4l.5-1.9-4.3-13.9h3.2l2.4 9.1h.1l1.8-9.1h2.9l-4 16.6c-.2.8-.4 2.2-1.3 3zM74.7 80c0 1.2-.1 2.8-1.4 3.9-.8.7-1.9 1-3 1s-2.2-.4-3-1c-1.4-1.1-1.4-2.8-1.4-3.9v-5.2c0-1.2.1-2.8 1.4-3.9.8-.7 1.9-1 3-1s2.2.4 3 1c1.4 1.1 1.4 2.8 1.4 3.9V80zm-3-5.3c0-.7-.2-1.2-.4-1.5-.2-.2-.6-.4-1.1-.4-.4 0-.8.2-1.1.4-.3.3-.4.8-.4 1.5v5.5c0 .7.2 1.2.4 1.5.2.2.6.4 1.1.4.4 0 .8-.2 1.1-.4.3-.3.4-.8.4-1.5v-5.5zM69 61.1c-.9 0-1.4-.2-1.9-.6-.4-.2-.7-.5-1-.9v7.2h-2.9V46.2h2.9v1.3c.2-.4.6-.8 1-1 .5-.4 1.2-.5 1.8-.5 1.5 0 2.2.8 2.4 1.1.6.9.7 2.1.7 3v7.6c0 .7-.1 1.7-.9 2.5-.5.6-1.2.9-2.1.9zm.1-10.5c0-.5 0-.9-.4-1.3-.3-.3-.6-.4-1-.4-.6 0-.9.3-1.1.5-.4.5-.5 1-.5 1.5v5.4c0 .5 0 1 .5 1.5.2.2.6.5 1.1.5.4 0 .8-.1 1-.4.4-.4.4-.8.4-1.2v-6.1zM60 84.7l-2.1-6.2h-1.7v6.2h-2.9V70.1h2.9V76h.9c.6 0 .9-.1 1.2-.7.2-.5.3-1 .4-1.4l.2-1.1c.1-.6.3-1.3.7-1.9.6-.9 1.6-1 2.5-1h.7v2.5h-.4c-.4 0-.6.1-.8.3-.1.1-.2.4-.3 1l-.1 1.1c-.1.7-.1 1.2-.3 1.6-.2.4-.4.6-.6.7l2.7 7.5h-3zm-3.4-35.1c-.3.4-.4.8-.4 1.2v10h-2.9V50.3c0-1 .1-2.3 1.1-3.2.9-.8 2.1-.9 3.2-.9h3v2.9H58c-.5 0-.9 0-1.4.5zm27.7 28.7l3.2-8.2h2.7v14.6h-2.8v-8.3l-2.5 6.2h-1.2l-2.5-6.2v8.3h-2.8V70.1h2.7l3.2 8.2zm18.7 6.4h-2.9v-12h-2.8v12h-2.9V70.1h8.7v14.6z"/><path fill="#960430" d="M76.9 38.8c-1.8-16.1-15-29.2-31.1-31V0c20.4 1.8 37.1 18.4 38.9 38.8h-7.8zm-69.1 0H0C1.8 18.4 18.3 1.8 38.6 0v7.8C22.5 9.5 9.5 22.7 7.8 38.8zm30.9-4.2c0-5.3-2.1-10.1-5.6-13.7l5.2-5.5c4.9 4.9 8.3 11.7 8.4 19.1v34.3h-7.9V34.6zm3.6 42.5h4.3v7.7h-4.3C20.2 84.8 2 67.5 0 45.8h7.8c1.9 17.4 16.6 31.3 34.5 31.3z"/>
	</g>
	
	
	
	
	
	
	
	
	
	
	
	
	
	
	
	
	
	
	
	
	
	
	
	
	
	
	
	
	
	
	
	
	
	
	
	
	
	
	
	
	
	
	
	
	
	
	
	
	
	
	
	
	
	
	
	
	
	
	
	
	
	
	
	
	

	
	

	

    

    

	

	
</svg>