<svg width="50" height="50" viewBox="0 0 50 50" fill="none" xmlns="http://www.w3.org/2000/svg">
<path d="M41.0743 7.01163L4.66801 17.2655C4.3581 17.3503 4.08184 17.5285 3.87687 17.7759C3.6719 18.0233 3.54818 18.3279 3.52256 18.6481C3.49693 18.9684 3.57066 19.2887 3.73369 19.5656C3.89673 19.8424 4.14114 20.0623 4.43363 20.1952L21.1524 28.1054C21.4799 28.257 21.7429 28.5201 21.8946 28.8476L29.8047 45.5663C29.9377 45.8588 30.1575 46.1032 30.4344 46.2663C30.7112 46.4293 31.0316 46.503 31.3518 46.4774C31.6721 46.4518 31.9767 46.328 32.2241 46.1231C32.4715 45.9181 32.6497 45.6418 32.7344 45.3319L42.9883 8.92569C43.066 8.66002 43.0708 8.37834 43.0022 8.11017C42.9336 7.84201 42.7942 7.59724 42.5984 7.40151C42.4027 7.20578 42.1579 7.06631 41.8898 6.99772C41.6216 6.92912 41.3399 6.93392 41.0743 7.01163V7.01163Z" stroke="white" stroke-width="2" stroke-linecap="round" stroke-linejoin="round"/>
<path d="M21.6603 28.34L30.4884 19.5118" stroke="white" stroke-width="2" stroke-linecap="round" stroke-linejoin="round"/>
</svg>
