<svg width="108" height="108" viewBox="0 0 108 108" fill="none" xmlns="http://www.w3.org/2000/svg">
<path d="M40.5 87.75H30.375C24.1093 87.75 18.1001 85.2609 13.6696 80.8304C9.23906 76.3999 6.75 70.3907 6.75 64.125C6.75 57.8593 9.23906 51.8502 13.6696 47.4196C18.1001 42.9891 24.1093 40.5 30.375 40.5C32.3516 40.4993 34.3209 40.7401 36.2391 41.2172" stroke="#999999" stroke-width="4" stroke-linecap="round" stroke-linejoin="round"/>
<path d="M33.75 54C33.75 48.6523 35.0208 43.381 37.4577 38.6208C39.8945 33.8605 43.4277 29.7475 47.766 26.6206C52.1043 23.4937 57.1236 21.4425 62.4102 20.636C67.6968 19.8295 73.0994 20.2908 78.1727 21.9819C83.246 23.6731 87.8449 26.5455 91.5902 30.3627C95.3356 34.1798 98.1203 38.8323 99.7148 43.9368C101.309 49.0413 101.668 54.4517 100.761 59.722C99.8547 64.9924 97.7087 69.9718 94.5 74.25" stroke="#999999" stroke-width="4" stroke-linecap="round" stroke-linejoin="round"/>
<path d="M49.8235 68.3016L64.125 54L78.4266 68.3016" stroke="#69C1DD" stroke-width="4" stroke-linecap="round" stroke-linejoin="round"/>
<path d="M64.125 87.75V54" stroke="#69C1DD" stroke-width="4" stroke-linecap="round" stroke-linejoin="round"/>
</svg>
